<svg xmlns="http://www.w3.org/2000/svg" width="104" height="111" fill="none" viewBox="0 0 104 111">
  <path fill="#003BB2" fill-rule="evenodd" d="M64.18 18.559a2.098 2.098 0 0 1 2.986 0 2.143 2.143 0 0 1 0 3.01 2.095 2.095 0 0 1-1.493.627 2.098 2.098 0 0 1-1.493-.626 2.143 2.143 0 0 1-.616-1.506c0-.563.22-1.105.616-1.505Zm1.622 1.641.006-.006a.185.185 0 0 0 0-.26l-.006-.005a.19.19 0 0 0-.258 0l-.006.006a.185.185 0 0 0 0 .26l.006.005a.19.19 0 0 0 .258 0Zm-21.201 5.524a10.876 10.876 0 0 1 7.74-3.247c2.904 0 5.688 1.169 7.74 3.247a11.15 11.15 0 0 1 3.204 7.833 11.2 11.2 0 0 1-.833 4.239 11.09 11.09 0 0 1-2.37 3.594 10.937 10.937 0 0 1-3.551 2.403 10.827 10.827 0 0 1-8.38 0 10.936 10.936 0 0 1-3.55-2.403 11.09 11.09 0 0 1-2.37-3.594 11.201 11.201 0 0 1-.833-4.239 11.15 11.15 0 0 1 3.203-7.833Zm7.74-.93a8.59 8.59 0 0 0-6.111 2.565 8.823 8.823 0 0 0-2.534 6.198c0 1.151.224 2.291.659 3.355a8.77 8.77 0 0 0 1.875 2.843 8.637 8.637 0 0 0 2.805 1.898 8.545 8.545 0 0 0 6.613 0 8.638 8.638 0 0 0 2.805-1.898 8.772 8.772 0 0 0 1.875-2.843 8.867 8.867 0 0 0 .658-3.355 8.823 8.823 0 0 0-2.533-6.198 8.587 8.587 0 0 0-6.112-2.564Z" clip-rule="evenodd"/>
  <path fill="#003BB2" fill-rule="evenodd" d="M35.47 9.644 40.375.545l2.019 1.107-3.996 7.414c.254-.018.509-.027.765-.027h12.48L56.22.545l2.02 1.107-3.982 7.387h11.26a10.9 10.9 0 0 1 1.882.163L72.068.545l2.019 1.107-4.423 8.205.079.033a11.023 11.023 0 0 1 3.58 2.422 11.181 11.181 0 0 1 2.583 4.131l8.746 2.6-.65 2.223-7.512-2.233c.041.39.062.782.062 1.175V31.38L85 33.891l-.65 2.223-7.798-2.318v13.11c0 .57-.044 1.135-.128 1.691L85 51.147l-.65 2.223-8.506-2.529a11.183 11.183 0 0 1-2.522 3.961 11.012 11.012 0 0 1-4.145 2.642l.005.003-4.905 9.099-2.019-1.107 3.982-7.387c-.239.015-.48.023-.72.023H52.997l-4.566 8.47-2.02-1.106 3.97-7.364H39.159c-.187 0-.374-.004-.56-.014l-4.574 8.485-2.02-1.107 4.191-7.774a11.002 11.002 0 0 1-4.84-2.863 11.187 11.187 0 0 1-2.589-4.148L20 48.048l.65-2.223 7.537 2.24c-.04-.383-.06-.77-.06-1.159V35.871L20 33.455l.65-2.223 7.478 2.223v-13.25c0-.034.001-.068.004-.101 0-.094.003-.188.006-.281L20 17.403l.65-2.222 7.81 2.321a11.206 11.206 0 0 1 2.9-5.19 11.012 11.012 0 0 1 4.153-2.644l-.043-.024Zm-5.044 10.66v26.602a8.91 8.91 0 0 0 2.56 6.261 8.675 8.675 0 0 0 6.173 2.59h26.36a8.675 8.675 0 0 0 6.174-2.59 8.913 8.913 0 0 0 2.56-6.261V20.208a8.956 8.956 0 0 0-.665-3.389 8.86 8.86 0 0 0-1.895-2.872 8.727 8.727 0 0 0-2.833-1.917 8.63 8.63 0 0 0-3.34-.673H39.163a8.674 8.674 0 0 0-6.173 2.59 8.913 8.913 0 0 0-2.56 6.261c0 .032-.002.064-.004.095Z" clip-rule="evenodd"/>
  <path fill="#636363" d="M14.221 94.024h-2.04a4.508 4.508 0 0 0-.634-1.609 4.313 4.313 0 0 0-1.087-1.164 4.543 4.543 0 0 0-1.407-.718 5.422 5.422 0 0 0-1.613-.24c-1.02 0-1.945.268-2.774.804-.823.537-1.478 1.327-1.967 2.37-.482 1.044-.724 2.325-.724 3.843 0 1.517.242 2.798.724 3.841.489 1.044 1.144 1.834 1.967 2.371a4.997 4.997 0 0 0 2.774.804c.56 0 1.097-.08 1.613-.24a4.625 4.625 0 0 0 1.407-.71c.428-.319.79-.71 1.087-1.172a4.596 4.596 0 0 0 .633-1.609h2.041a7.254 7.254 0 0 1-.84 2.405 6.502 6.502 0 0 1-1.513 1.805 6.549 6.549 0 0 1-2.033 1.121 7.304 7.304 0 0 1-2.395.385c-1.438 0-2.716-.365-3.835-1.095-1.12-.73-2-1.769-2.642-3.115C.32 100.755 0 99.158 0 97.31c0-1.849.321-3.446.963-4.792.642-1.346 1.522-2.385 2.642-3.115 1.119-.73 2.397-1.095 3.835-1.095.85 0 1.649.128 2.395.385a6.46 6.46 0 0 1 3.547 2.926c.406.702.686 1.504.84 2.405Zm4.977 4.141v7.906h-1.942V88.548h1.942v6.434h.165a3.679 3.679 0 0 1 1.333-1.617c.598-.405 1.394-.608 2.387-.608.861 0 1.616.18 2.263.54.648.353 1.15.898 1.506 1.634.362.73.543 1.66.543 2.79v8.35h-1.942v-8.214c0-1.044-.26-1.85-.782-2.421-.515-.577-1.231-.865-2.148-.865-.636 0-1.207.14-1.712.42-.499.28-.894.687-1.185 1.223-.285.537-.428 1.187-.428 1.951Zm15.471 8.214c-.801 0-1.528-.156-2.181-.47a3.791 3.791 0 0 1-1.556-1.378c-.384-.604-.576-1.335-.576-2.19 0-.753.143-1.364.428-1.831a3.069 3.069 0 0 1 1.144-1.113 5.869 5.869 0 0 1 1.58-.599 18.585 18.585 0 0 1 1.753-.325c.768-.102 1.391-.18 1.868-.23.483-.058.835-.152 1.054-.283.225-.131.337-.36.337-.685v-.068c0-.844-.222-1.5-.666-1.968-.44-.468-1.106-.702-2-.702-.927 0-1.654.211-2.181.633-.527.422-.897.873-1.111 1.352l-1.844-.684c.33-.799.768-1.42 1.317-1.865a4.865 4.865 0 0 1 1.81-.942 7.25 7.25 0 0 1 1.943-.274c.406 0 .872.052 1.4.154.531.097 1.044.3 1.538.608.5.308.914.773 1.243 1.395.329.621.494 1.454.494 2.498v8.659H38.52v-1.779h-.098c-.132.285-.352.59-.659.915-.307.325-.716.602-1.226.83-.51.228-1.133.342-1.868.342Zm.296-1.814c.768 0 1.416-.156 1.942-.47.533-.314.933-.719 1.202-1.215a3.19 3.19 0 0 0 .411-1.566v-1.848c-.082.103-.263.197-.543.282a8.86 8.86 0 0 1-.954.214c-.357.057-.706.108-1.046.154-.334.04-.606.074-.814.103a7.15 7.15 0 0 0-1.416.333 2.438 2.438 0 0 0-1.053.676c-.264.297-.396.702-.396 1.215 0 .702.25 1.233.75 1.592.504.354 1.143.53 1.917.53Zm12.763 1.814c-.801 0-1.528-.156-2.181-.47a3.791 3.791 0 0 1-1.556-1.378c-.384-.604-.576-1.335-.576-2.19 0-.753.143-1.364.428-1.831a3.069 3.069 0 0 1 1.144-1.113 5.869 5.869 0 0 1 1.58-.599 18.585 18.585 0 0 1 1.753-.325c.768-.102 1.391-.18 1.868-.23.483-.058.834-.152 1.054-.283.225-.131.337-.36.337-.685v-.068c0-.844-.222-1.5-.666-1.968-.44-.468-1.106-.702-2-.702-.927 0-1.654.211-2.181.633-.527.422-.897.873-1.111 1.352l-1.844-.684c.33-.799.768-1.42 1.317-1.865a4.865 4.865 0 0 1 1.81-.942 7.25 7.25 0 0 1 1.943-.274c.406 0 .872.052 1.399.154a4.38 4.38 0 0 1 1.539.608c.5.308.914.773 1.243 1.395.329.621.494 1.454.494 2.498v8.659h-1.943v-1.779h-.099c-.131.285-.35.59-.658.915-.307.325-.716.602-1.226.83-.51.228-1.133.342-1.868.342Zm.296-1.814c.768 0 1.416-.156 1.942-.47.532-.314.933-.719 1.202-1.215a3.189 3.189 0 0 0 .411-1.566v-1.848c-.082.103-.263.197-.543.282-.274.08-.593.151-.955.214-.356.057-.705.108-1.045.154-.334.04-.606.074-.815.103a7.148 7.148 0 0 0-1.415.333 2.438 2.438 0 0 0-1.054.676c-.263.297-.395.702-.395 1.215 0 .702.25 1.233.75 1.592.504.354 1.143.53 1.917.53ZM57.865 111c-.33 0-.623-.029-.88-.086-.259-.051-.437-.102-.536-.154l.494-1.779c.472.125.889.171 1.251.137.362-.035.683-.203.963-.505.285-.297.546-.779.782-1.446l.362-1.027-4.675-13.211h2.107l3.49 10.473h.131l3.49-10.473h2.107l-5.366 15.059c-.242.679-.54 1.241-.897 1.686a3.39 3.39 0 0 1-1.243 1.001c-.466.217-.993.325-1.58.325Zm14.985-4.621c-.801 0-1.528-.156-2.181-.47a3.791 3.791 0 0 1-1.556-1.378c-.384-.604-.576-1.335-.576-2.19 0-.753.143-1.364.428-1.831a3.07 3.07 0 0 1 1.144-1.113 5.869 5.869 0 0 1 1.58-.599 18.583 18.583 0 0 1 1.753-.325c.768-.102 1.391-.18 1.868-.23.483-.058.834-.152 1.054-.283.225-.131.337-.36.337-.685v-.068c0-.844-.222-1.5-.666-1.968-.44-.468-1.106-.702-2-.702-.927 0-1.654.211-2.181.633-.527.422-.897.873-1.111 1.352l-1.844-.684c.33-.799.768-1.42 1.317-1.865a4.865 4.865 0 0 1 1.81-.942 7.25 7.25 0 0 1 1.943-.274c.406 0 .872.052 1.399.154a4.38 4.38 0 0 1 1.539.608c.5.308.913.773 1.243 1.395.329.621.493 1.454.493 2.498v8.659h-1.942v-1.779h-.098c-.132.285-.352.59-.659.915-.307.325-.716.602-1.226.83-.51.228-1.133.342-1.868.342Zm.296-1.814c.768 0 1.415-.156 1.942-.47.532-.314.933-.719 1.202-1.215a3.189 3.189 0 0 0 .411-1.566v-1.848c-.082.103-.263.197-.543.282a8.86 8.86 0 0 1-.955.214c-.356.057-.705.108-1.045.154-.335.04-.606.074-.815.103a7.151 7.151 0 0 0-1.415.333 2.437 2.437 0 0 0-1.054.676c-.263.297-.395.702-.395 1.215 0 .702.25 1.233.75 1.592.504.354 1.143.53 1.917.53Zm10.458 1.643a1.4 1.4 0 0 1-1.045-.453 1.513 1.513 0 0 1-.436-1.087c0-.422.145-.784.436-1.087a1.4 1.4 0 0 1 1.045-.453 1.4 1.4 0 0 1 1.045.453c.291.303.436.665.436 1.087 0 .28-.068.536-.205.77-.132.234-.31.422-.535.565a1.37 1.37 0 0 1-.74.205Zm8.686.171c-.8 0-1.527-.156-2.18-.47a3.791 3.791 0 0 1-1.556-1.378c-.384-.604-.576-1.335-.576-2.19 0-.753.143-1.364.428-1.831a3.069 3.069 0 0 1 1.144-1.113 5.869 5.869 0 0 1 1.58-.599 18.585 18.585 0 0 1 1.753-.325 72.55 72.55 0 0 1 1.869-.23c.482-.058.834-.152 1.053-.283.225-.131.337-.36.337-.685v-.068c0-.844-.222-1.5-.666-1.968-.44-.468-1.106-.702-2-.702-.927 0-1.654.211-2.181.633-.527.422-.897.873-1.111 1.352l-1.844-.684c.33-.799.769-1.42 1.317-1.865a4.865 4.865 0 0 1 1.81-.942 7.25 7.25 0 0 1 1.943-.274c.406 0 .873.052 1.4.154.531.097 1.044.3 1.538.608.5.308.914.773 1.243 1.395.33.621.494 1.454.494 2.498v8.659h-1.943v-1.779h-.098c-.132.285-.352.59-.659.915-.307.325-.716.602-1.226.83-.51.228-1.133.342-1.868.342Zm.297-1.814c.768 0 1.416-.156 1.942-.47.533-.314.933-.719 1.202-1.215a3.189 3.189 0 0 0 .411-1.566v-1.848c-.082.103-.263.197-.543.282a8.86 8.86 0 0 1-.954.214c-.357.057-.705.108-1.046.154-.334.04-.606.074-.814.103a7.15 7.15 0 0 0-1.416.333 2.438 2.438 0 0 0-1.053.676c-.264.297-.395.702-.395 1.215 0 .702.25 1.233.748 1.592.505.354 1.145.53 1.918.53Zm9.043 1.506V92.929h1.942v13.142h-1.942Zm.987-15.333c-.378 0-.705-.134-.979-.402a1.316 1.316 0 0 1-.403-.967c0-.376.134-.699.403-.967.274-.268.601-.402.979-.402.379 0 .703.134.972.402.274.268.411.59.411.967s-.137.699-.411.967a1.327 1.327 0 0 1-.972.402Z"/>
</svg>
